<svg width="30.000000" height="30.000000" viewBox="0 0 30 30" fill="none" xmlns="http://www.w3.org/2000/svg" xmlns:xlink="http://www.w3.org/1999/xlink">
	<desc>
			Created with Pixso.
	</desc>
	<defs>
		<clipPath id="clip0_52">
			<rect id="Front Car" width="30.000000" height="30.000000" fill="white" fill-opacity="0"/>
		</clipPath>
	</defs>
	<g clip-path="url(#clip0_52)">
		<path id="Rectangle 1" d="M22.5 13.75C24.571 13.75 26.25 15.429 26.25 17.5L26.25 22.5C26.25 23.1904 25.6904 23.75 25 23.75L22.5 23.75C21.8096 23.75 21.25 23.1904 21.25 22.5L21.25 21.25L8.75 21.25L8.75 22.5C8.75 23.1904 8.19037 23.75 7.5 23.75L5 23.75C4.30963 23.75 3.75 23.1904 3.75 22.5L3.75 17.5C3.75 15.429 5.42896 13.75 7.5 13.75L22.5 13.75Z" stroke="#FFFFFF" stroke-opacity="1.000000" stroke-width="1.875000" stroke-linejoin="round"/>
		<path id="Vector 3" d="M6.25 13.75L8.18018 7.95941C8.52045 6.9386 9.47583 6.25 10.5519 6.25L19.4481 6.25C20.5242 6.25 21.4796 6.9386 21.8198 7.95941L23.75 13.75" stroke="#FFFFFF" stroke-opacity="1.000000" stroke-width="1.875000" stroke-linejoin="round" stroke-linecap="round"/>
		<path id="Vector 4" d="M23.75 13.75L26.25 12.5" stroke="#FFFFFF" stroke-opacity="1.000000" stroke-width="1.875000" stroke-linejoin="round" stroke-linecap="round"/>
		<path id="Vector 5" d="M6.25 13.75L3.75 12.5" stroke="#FFFFFF" stroke-opacity="1.000000" stroke-width="1.875000" stroke-linejoin="round" stroke-linecap="round"/>
		<path id="Vector 6" d="M7.5 17.5L10 17.5" stroke="#FFFFFF" stroke-opacity="1.000000" stroke-width="1.875000" stroke-linejoin="round" stroke-linecap="round"/>
		<path id="Vector 7" d="M20 17.5L22.5 17.5" stroke="#FFFFFF" stroke-opacity="1.000000" stroke-width="1.875000" stroke-linejoin="round" stroke-linecap="round"/>
	</g>
</svg>
