<svg width="48.001221" height="48.002441" viewBox="0 0 48.0012 48.0024" fill="none" xmlns="http://www.w3.org/2000/svg" xmlns:xlink="http://www.w3.org/1999/xlink">
	<desc>
			Created with Pixso.
	</desc>
	<defs/>
	<circle id="Ellipse 1" cx="24.001221" cy="24.000000" r="24.000000" fill="#6D3B27" fill-opacity="1.000000"/>
	<path id="Ellipse 2" d="M47.7343 27.5869C47.0944 31.8464 45.3328 35.7415 42.7604 38.9614C39.2393 43.385 34.4623 46.229 29.3395 47.3936C23.8284 48.6567 18.3205 47.9016 13.5893 45.6182C8.49292 43.1697 4.65741 39.1453 2.3822 34.4099C-0.0756836 29.3181 -0.565308 23.7803 0.608276 18.6597C1.86133 13.1462 4.93127 8.51123 9.04156 5.2395C12.4519 2.51465 16.3825 0.874512 20.4144 0.268066C22.3806 -0.0275879 24.0012 1.61182 24.0012 3.6001C24.0012 5.58838 22.3715 7.15991 20.4286 7.58154C17.8613 8.13892 15.5117 9.28394 13.5283 10.8687C10.4316 13.3333 8.44092 16.6772 7.62579 20.2632C6.74158 24.1208 7.27002 27.9766 8.86853 31.2883C10.5825 34.8557 13.3995 37.5408 16.7142 39.1333C20.2785 40.8538 24.155 41.1965 27.7395 40.375C31.5989 39.498 34.8433 37.3489 37.1336 34.4717C38.8009 32.385 39.8881 30.02 40.4188 27.5725C40.8402 25.6296 42.4128 24 44.4011 24C46.3893 24 48.0297 25.6206 47.7343 27.5869Z" fill="#EE8313" fill-opacity="1.000000" fill-rule="evenodd"/>
	<path id="HK" d="M12.1532 29.88L12.1532 18.04L14.3292 18.04L14.3292 22.904L19.2732 22.904L19.2732 18.04L21.4492 18.04L21.4492 29.88L19.2732 29.88L19.2732 24.792L14.3292 24.792L14.3292 29.88L12.1532 29.88ZM23.747 29.88L23.747 18.04L25.923 18.04L25.923 23.176L30.435 18.056L33.155 18.056L28.019 23.736L33.363 29.88L30.547 29.88L25.923 24.472L25.923 29.88L23.747 29.88Z" fill="#FFFFFF" fill-opacity="1.000000" fill-rule="evenodd"/>
</svg>
