<svg width="15.913544" height="20.106697" viewBox="0 0 15.9135 20.1067" fill="none" xmlns="http://www.w3.org/2000/svg" xmlns:xlink="http://www.w3.org/1999/xlink">
	<desc>
			Created with Pixso.
	</desc>
	<defs/>
	<path id="Vector" d="M13.7611 13.1361L12.5811 12.7896L10.0137 11.1127L10.0137 10.7285C10.757 10.1678 11.2675 9.31078 11.3623 8.32842C11.7351 8.26841 12.0207 7.94447 12.0207 7.55506L12.0207 6.49847C12.0207 6.49439 12.0203 6.49039 12.0201 6.4863L12.0201 5.14787C12.1686 5.04153 12.2629 4.8683 12.2629 4.67399L12.2629 3.44913L14.0347 3.14734C14.3259 3.09774 14.5352 2.86647 14.5558 2.57182C14.5763 2.27717 14.4011 2.01908 14.1196 1.92958L8.14664 0.0297394C8.02197 -0.00992584 7.89035 -0.0098877 7.76578 0.0296974L1.79272 1.92958C1.51126 2.01908 1.33597 2.27717 1.35651 2.57178C1.36954 2.75898 1.45898 2.92039 1.59708 3.0261L1.59708 4.62785L1.58246 4.62785C1.24609 4.62785 0.972473 4.90149 0.972473 5.23784L0.972473 6.03292L0.578705 8.34409C0.510651 8.74383 0.818512 9.10971 1.22498 9.10971L2.5582 9.10971C2.96375 9.10971 3.27267 8.74469 3.20447 8.34405L2.8107 6.03292L2.8107 5.23784C2.8107 4.90149 2.53705 4.62785 2.20071 4.62785L2.18613 4.62785L2.18613 3.19984L3.6507 3.44929L3.6507 4.67399C3.6507 4.86748 3.74451 5.04042 3.89233 5.14693L3.89288 6.49859L3.89288 7.55506C3.89288 7.94451 4.1785 8.26841 4.5513 8.32842C4.64615 9.31023 5.15604 10.1668 5.89865 10.7276L5.89865 11.1136L3.33182 12.7902L2.15271 13.1363C0.890991 13.5066 9.15527e-05 14.665 9.15527e-05 16.0115L9.15527e-05 16.8893C9.15527e-05 17.0519 0.131897 17.1838 0.294617 17.1838C0.457306 17.1838 0.589142 17.052 0.589142 16.8893L0.589142 16.0115C0.589142 14.9502 1.30029 14.0003 2.31863 13.7015L3.41727 13.379L7.80643 15.9871C7.89554 16.04 8.01343 16.0428 8.1073 15.9871L12.4967 13.3788L13.5953 13.7013C14.6134 14.0002 15.3246 14.9501 15.3246 16.0113L15.3246 18.856C15.3246 19.2209 15.0277 19.5177 14.6629 19.5177L13.3647 19.5177L13.3647 18.2482C13.3647 18.0855 13.2329 17.9536 13.0702 17.9536C12.9075 17.9536 12.7756 18.0855 12.7756 18.2482L12.7756 19.5177L3.13669 19.5177L3.13669 18.2482C3.13669 18.0855 3.00485 17.9536 2.84216 17.9536C2.67944 17.9536 2.54761 18.0855 2.54761 18.2482L2.54761 19.5177L1.25076 19.5177C0.885925 19.5177 0.58905 19.2209 0.58905 18.856L0.58905 18.2661C0.58905 18.1034 0.457245 17.9715 0.294525 17.9715C0.131836 17.9715 0 18.1034 0 18.2661L0 18.856C0 19.5456 0.561066 20.1067 1.25073 20.1067L14.6628 20.1067C15.3525 20.1067 15.9135 19.5456 15.9135 18.856L15.9135 16.0113C15.9135 14.6965 15.053 13.5154 13.7611 13.1361ZM2.55814 8.52065L1.22498 8.52065C1.18378 8.52065 1.15237 8.48385 1.15936 8.44297L1.51553 6.35235L2.26758 6.35235L2.62378 8.44293C2.63071 8.48373 2.59955 8.52065 2.55814 8.52065ZM2.22162 5.23784L2.22162 5.76332L1.56146 5.76332L1.56146 5.23784C1.56146 5.22626 1.57083 5.21687 1.58243 5.21687L2.20062 5.21687C2.21225 5.21683 2.22162 5.22626 2.22162 5.23784ZM6.90344 14.6548L7.02066 14.8349L4.01373 13.0482L5.92233 11.8016C6.00888 12.8171 6.34363 13.7944 6.90344 14.6548ZM6.9014 13.3834C7.59464 13.4819 8.31854 13.4819 9.01221 13.3834C8.87817 13.7132 8.71298 14.0314 8.51645 14.3336L7.95679 15.1938L7.39713 14.3336C7.20059 14.0314 7.03543 13.7132 6.9014 13.3834ZM9.01016 14.6548C9.56995 13.7944 9.90469 12.8171 9.99121 11.8016L11.8998 13.0482L8.89294 14.8349L9.01016 14.6548ZM10.733 5.25755L11.4311 5.25755L11.4311 6.2039L11.0846 6.2039C10.8907 6.2039 10.733 6.04619 10.733 5.85231L10.733 5.25755L10.733 5.25755ZM1.97125 2.49092L7.94437 0.590996C7.95203 0.588562 7.9603 0.588524 7.96805 0.591038L13.9412 2.49092C13.9535 2.49485 13.9704 2.50019 13.9683 2.53086C13.9661 2.56149 13.9486 2.56444 13.9358 2.56664L11.961 2.90299L11.2195 2.81129C11.0582 2.79131 10.9111 2.90606 10.8911 3.06746C10.8712 3.2289 10.9859 3.37593 11.1473 3.39588L11.6739 3.46103L11.6739 4.66853L4.23972 4.66826L4.23972 3.46099L7.28741 3.08387C7.73132 3.02901 8.18137 3.02901 8.62497 3.08387L9.77847 3.22654C9.93988 3.24653 10.087 3.13182 10.1069 2.97042C10.127 2.80898 10.0122 2.66195 9.85083 2.64196L8.69733 2.49929C8.20578 2.43846 7.70703 2.43846 7.21512 2.49929L3.95193 2.90307L1.9765 2.56664C1.96371 2.56444 1.94623 2.56149 1.94406 2.53086C1.94196 2.50019 1.95886 2.49481 1.97125 2.49092ZM4.48175 6.2039L4.48135 5.25755L5.18057 5.25755L5.18057 5.85235C5.18057 6.04619 5.02286 6.20395 4.82895 6.20395L4.48175 6.20395L4.48175 6.2039ZM5.13 8.17703C5.11484 7.9372 4.9155 7.74933 4.67621 7.74933C4.56906 7.74933 4.48187 7.66215 4.48187 7.55502L4.48187 6.79297L4.82895 6.79297C5.3476 6.79297 5.76959 6.371 5.76959 5.85235L5.76959 5.25755L10.144 5.25755L10.144 5.85235C10.144 6.371 10.5659 6.79297 11.0846 6.79297L11.4317 6.79297L11.4317 7.55502C11.4317 7.66215 11.3445 7.74933 11.2373 7.74933C10.998 7.74933 10.7987 7.9372 10.7835 8.17707C10.6897 9.66422 9.44806 10.8292 7.95676 10.8292C6.46542 10.8292 5.22382 9.66422 5.13 8.17703ZM7.95679 11.4182C8.48062 11.4182 8.97849 11.2984 9.42465 11.0855L9.42465 11.2721C9.42465 11.7757 9.35672 12.2724 9.22589 12.7515C8.42548 12.9041 7.52057 12.9103 6.68768 12.7515C6.55685 12.2725 6.48892 11.7757 6.48892 11.2721C6.48892 11.2659 6.48807 11.2598 6.48767 11.2536C6.48758 11.2524 6.4877 11.2512 6.48764 11.25L6.48764 11.0849C6.93408 11.2982 7.43243 11.4182 7.95679 11.4182Z" fill="#4C68FF" fill-opacity="1.000000" fill-rule="nonzero"/>
</svg>
