<svg width="18.846558" height="24.986771" viewBox="0 0 18.8466 24.9868" fill="none" xmlns="http://www.w3.org/2000/svg" xmlns:xlink="http://www.w3.org/1999/xlink">
	<desc>
			Created with Pixso.
	</desc>
	<defs/>
	<path id="Vector" d="M17.5183 7.86945C17.4681 7.26796 17.2175 6.7166 16.8165 6.31561C16.4155 5.91463 15.8893 5.664 15.2627 5.664L13.9344 5.664L13.9344 4.51115C13.9344 3.25806 13.4332 2.13026 12.6062 1.32828C11.7792 0.501236 10.6514 0 9.42334 0C8.17017 0 7.04236 0.501236 6.24048 1.32828C5.41333 2.13026 4.91211 3.25806 4.91211 4.51115L4.91211 5.664L3.58386 5.664C2.95728 5.664 2.43103 5.91463 2.03003 6.31561C1.62903 6.7166 1.37842 7.26796 1.32825 7.86945L0 22.7061C0 22.7813 0 22.8565 0 22.8816C0 23.4329 0.225586 23.9592 0.626587 24.3352C1.00244 24.686 1.50366 24.9366 2.03003 24.9868L2.05505 24.9868C2.13025 24.9868 2.20544 24.9868 2.25562 24.9868L16.5911 24.9868C16.6411 24.9868 16.7163 24.9868 16.7915 24.9868C17.3429 24.9366 17.8441 24.686 18.2201 24.3352C18.621 23.9592 18.8466 23.4329 18.8466 22.8565C18.8466 22.8064 18.8466 22.7563 18.8466 22.6811L17.5183 7.86945ZM6.29053 4.51115C6.29053 3.63399 6.64136 2.85706 7.2179 2.28064C7.79431 1.70421 8.57117 1.35335 9.44836 1.35335C10.3256 1.35335 11.1024 1.70421 11.6788 2.28064C12.2552 2.85706 12.6062 3.63399 12.6062 4.51115L12.6062 5.664L6.29053 5.664L6.29053 4.51115ZM17.4431 22.8816C17.4431 23.0821 17.3679 23.2575 17.2175 23.3828C17.0671 23.5332 16.8417 23.6334 16.6411 23.6585C16.6411 23.6585 16.6161 23.6585 16.5659 23.6585L2.25562 23.6585C2.20544 23.6585 2.18042 23.6585 2.18042 23.6585L2.15527 23.6585C1.92981 23.6334 1.72925 23.5332 1.57886 23.3828C1.42859 23.2575 1.35339 23.0821 1.35339 22.8816L1.35339 22.8064L2.68164 7.99477C2.70667 7.71909 2.83203 7.46846 3.00745 7.29303C3.15784 7.14265 3.35828 7.0424 3.58386 7.0424L4.91211 7.0424L4.91211 10.1C4.91211 10.4759 5.21289 10.7766 5.58887 10.7766C5.96472 10.7766 6.2655 10.4759 6.2655 10.1L6.2655 7.0424L12.531 7.0424L12.531 10.1C12.531 10.4759 12.8317 10.7766 13.2076 10.7766C13.5836 10.7766 13.8843 10.4759 13.8843 10.1L13.8843 7.0424L15.2126 7.0424C15.4381 7.0424 15.6387 7.14265 15.7891 7.29303C15.9645 7.46846 16.0897 7.71909 16.1149 7.99477L17.4431 22.8314L17.4431 22.8816Z" fill="#000000" fill-opacity="1.000000" fill-rule="nonzero"/>
</svg>
