<svg width="42.001282" height="21.998871" viewBox="0 0 42.0013 21.9989" fill="none" xmlns="http://www.w3.org/2000/svg" xmlns:xlink="http://www.w3.org/1999/xlink">
	<desc>
			Created with Pixso.
	</desc>
	<defs/>
	<path id="Vector" d="M21.6302 17.5571C24.6185 16.9169 26.9116 13.2311 26.9116 8.77959C26.9116 4.32812 24.6185 0.642273 21.6302 0.00338745C21.5227 -0.0198975 21.4239 0.0809784 21.4239 0.210312L21.4239 17.3502L21.6302 17.5571Z" fill="#3D3017" fill-opacity="1.000000" fill-rule="nonzero"/>
	<path id="Vector" d="M20.3336 17.3502L20.3336 0.210312C20.3336 0.0796967 20.2348 -0.0198822 20.1273 0.00338745C17.139 0.64357 14.8459 4.32942 14.8459 8.78088C14.8459 13.2324 17.1378 16.9182 20.1273 17.5584L20.3336 17.3502Z" fill="#3D3017" fill-opacity="1.000000" fill-rule="nonzero"/>
	<path id="Vector" d="M31.2465 21.6723C34.0998 22.7936 37.9471 20.9597 40.2602 17.2053C42.5733 13.4509 42.5545 9.06799 40.3652 6.86812C40.2864 6.78923 40.1514 6.81897 40.0839 6.92891L31.1802 21.3839L31.2465 21.6723Z" fill="#3D3017" fill-opacity="1.000000" fill-rule="nonzero"/>
	<path id="Vector" d="M30.2613 20.7774L39.1649 6.32236C39.2324 6.21242 39.2011 6.07275 39.0986 6.03265C36.2454 4.91138 32.3981 6.74525 30.085 10.4996C27.7719 14.254 27.7906 18.637 29.9799 20.8368L30.2613 20.7774Z" fill="#3D3017" fill-opacity="1.000000" fill-rule="nonzero"/>
	<path id="Vector" d="M10.7548 21.6723C7.90155 22.7936 4.05428 20.9597 1.74115 17.2053C-0.571976 13.4509 -0.553207 9.06799 1.63612 6.86812C1.71489 6.78923 1.84993 6.81897 1.91745 6.92891L10.8211 21.3839L10.7548 21.6723Z" fill="#3D3017" fill-opacity="1.000000" fill-rule="nonzero"/>
	<path id="Vector" d="M11.74 20.7774L2.8364 6.32236C2.76888 6.21243 2.80014 6.07275 2.90266 6.03267C5.75594 4.91139 9.60321 6.74525 11.9163 10.5009C14.2294 14.2553 14.2107 18.6383 12.0214 20.8381L11.74 20.7774Z" fill="#3D3017" fill-opacity="1.000000" fill-rule="nonzero"/>
</svg>
