<svg width="26.000000" height="19.804688" viewBox="0 0 26 19.8047" fill="none" xmlns="http://www.w3.org/2000/svg" xmlns:xlink="http://www.w3.org/1999/xlink">
	<desc>
			Created with Pixso.
	</desc>
	<defs/>
	<path id="Vector" d="M2.28516 0L23.7148 0C24.9733 0 26 1.02563 26 2.28516L26 17.5195C26 18.7749 24.9779 19.8047 23.7148 19.8047L2.28516 19.8047C1.02979 19.8047 0 18.7825 0 17.5195L0 2.28516C0 1.02979 1.02209 0 2.28516 0ZM2.60071 1.52344L12.9515 11.8743L23.392 1.52344L2.60071 1.52344ZM24.4766 17.2041L24.4766 2.59326L17.1398 9.86719L24.4766 17.2041ZM23.3993 18.2812L16.0579 10.9397L13.4855 13.4902C13.1877 13.7854 12.7072 13.7844 12.4105 13.4878L9.90234 10.9795L2.60071 18.2812L23.3993 18.2812ZM1.52344 17.2041L8.82507 9.90234L1.52344 2.60059L1.52344 17.2041Z" fill="#FFFFFF" fill-opacity="1.000000" fill-rule="nonzero"/>
</svg>
