<svg width="20.999939" height="21.004883" viewBox="0 0 20.9999 21.0049" fill="none" xmlns="http://www.w3.org/2000/svg" xmlns:xlink="http://www.w3.org/1999/xlink">
	<desc>
			Created with Pixso.
	</desc>
	<defs/>
	<path id="Vector" d="M20.9999 10.4946C20.9979 8.41504 20.3809 6.38477 19.2269 4.66504C18.0719 2.93506 16.4309 1.59473 14.5129 0.794922C12.5939 0.00488281 10.483 -0.205078 8.44696 0.20459C6.40996 0.60498 4.53993 1.61475 3.07294 3.07471C1.60493 4.54492 0.605927 6.41455 0.200928 8.45459C-0.203079 10.4946 0.00492859 12.605 0.799927 14.5249C1.59492 16.4351 2.94093 18.0747 4.66693 19.2349C6.39394 20.3848 8.42393 21.0049 10.4999 21.0049C10.5619 21.0049 10.6229 21.0049 10.6849 21.0049L10.6849 12.8247L8.42896 12.8247L8.42896 10.1846L10.6849 10.1846L10.6849 8.25488C10.6389 7.79492 10.6939 7.33496 10.8459 6.89502C10.9969 6.46484 11.242 6.06494 11.564 5.73486C11.885 5.40479 12.274 5.14502 12.705 4.98486C13.1349 4.81494 13.597 4.75488 14.056 4.78467C14.731 4.78467 15.4059 4.81494 16.0779 4.88477L16.0779 7.23486L14.7 7.23486C13.6129 7.23486 13.4 7.75488 13.4 8.51465L13.4 10.1846L15.9999 10.1846L15.6599 12.8149L13.4 12.8149L13.4 20.5947C15.591 19.9648 17.5179 18.6348 18.8889 16.8149C20.2599 14.9946 21.0009 12.7749 20.9999 10.4946Z" fill="#3D3017" fill-opacity="1.000000" fill-rule="nonzero"/>
</svg>
