<svg width="21.000000" height="21.000000" viewBox="0 0 21 21" fill="none" xmlns="http://www.w3.org/2000/svg" xmlns:xlink="http://www.w3.org/1999/xlink">
	<desc>
			Created with Pixso.
	</desc>
	<defs/>
	<g opacity="0.810000">
		<path id="Vector" d="M15.3656 3.81006L5.63354 3.81006C5.14954 3.81006 4.68558 4 4.34357 4.33984C4.00156 4.68994 3.80859 5.1499 3.80859 5.62988L3.80859 15.3701C3.80859 15.8501 4.00156 16.3101 4.34357 16.6602C4.68558 17 5.14954 17.1899 5.63354 17.1899L15.3656 17.1899C15.8486 17.1899 16.3126 17 16.6546 16.6602C16.9976 16.3101 17.1895 15.8501 17.1906 15.3701L17.1906 5.62988C17.1895 5.1499 16.9976 4.68994 16.6546 4.33984C16.3126 4 15.8486 3.81006 15.3656 3.81006ZM10.4996 14.7598C9.65659 14.7598 8.83356 14.5103 8.13354 14.04C7.43353 13.5698 6.88754 12.9102 6.56555 12.1299C6.24255 11.3501 6.15857 10.5 6.32257 9.66992C6.48758 8.83984 6.89258 8.08008 7.48859 7.49023C8.08359 6.89014 8.84259 6.48975 9.66858 6.31982C10.4946 6.16016 11.3506 6.23975 12.1286 6.56982C12.9066 6.89014 13.5716 7.43018 14.0396 8.12988C14.5075 8.83008 14.7576 9.66016 14.7576 10.5C14.7556 11.6299 14.3065 12.71 13.5085 13.5098C12.7105 14.3101 11.6276 14.7598 10.4996 14.7598ZM14.7576 7.45996C14.5166 7.45996 14.2816 7.39014 14.0806 7.25C13.8806 7.12012 13.7246 6.93018 13.6326 6.70996C13.5406 6.47998 13.5166 6.24023 13.5636 6C13.6106 5.77002 13.7265 5.5498 13.8965 5.37988C14.0666 5.20996 14.2836 5.08984 14.5196 5.0498C14.7556 5 15.0006 5.02002 15.2226 5.12012C15.4456 5.20996 15.6356 5.35986 15.7686 5.56006C15.9026 5.76025 15.9745 6 15.9745 6.24023C15.9745 6.56006 15.8456 6.87012 15.6176 7.1001C15.3896 7.33008 15.0796 7.45996 14.7576 7.45996Z" fill="#3D3017" fill-opacity="1.000000" fill-rule="nonzero"/>
		<path id="Vector" d="M10.4996 7.35986C9.87964 7.35986 9.27261 7.5498 8.75562 7.88965C8.23962 8.22998 7.83762 8.72998 7.59961 9.2998C7.36261 9.87012 7.30063 10.5 7.42163 11.1099C7.54263 11.7197 7.84164 12.2798 8.28064 12.7197C8.71964 13.1597 9.27863 13.46 9.88763 13.5801C10.4966 13.6997 11.1277 13.6401 11.7017 13.3999C12.2747 13.1597 12.7646 12.7598 13.1096 12.2397C13.4546 11.73 13.6386 11.1201 13.6386 10.5C13.6376 9.66992 13.3066 8.87012 12.7186 8.27979C12.1296 7.68994 11.3326 7.35986 10.4996 7.35986Z" fill="#3D3017" fill-opacity="1.000000" fill-rule="nonzero"/>
		<path id="Vector" d="M17.883 0L3.117 0C2.293 0.00976562 1.505 0.339844 0.921997 0.919922C0.339996 1.51025 0.00900269 2.29004 0 3.12012L0 17.8799C0.00900269 18.71 0.339996 19.4897 0.921997 20.0801C1.505 20.6602 2.293 20.9902 3.117 21L17.883 21C18.707 20.9902 19.495 20.6602 20.078 20.0801C20.66 19.4897 20.991 18.71 21 17.8799L21 3.12012C20.991 2.29004 20.66 1.51025 20.078 0.919922C19.495 0.339844 18.707 0.00976562 17.883 0ZM18.5 15.4199C18.499 16.2402 18.175 17.02 17.598 17.6001C17.021 18.1802 16.238 18.5 15.422 18.5L5.578 18.5C4.76199 18.5 3.97897 18.1802 3.40198 17.6001C2.82498 17.02 2.50101 16.2402 2.5 15.4199L2.5 5.58008C2.50101 4.75977 2.82498 3.97998 3.40198 3.3999C3.97897 2.81982 4.76199 2.5 5.578 2.5L15.422 2.5C16.238 2.5 17.021 2.81982 17.598 3.3999C18.175 3.97998 18.499 4.75977 18.5 5.58008L18.5 15.4199Z" fill="#3D3017" fill-opacity="1.000000" fill-rule="nonzero"/>
	</g>
</svg>
