<svg width="20.997437" height="21.000000" viewBox="0 0 20.9974 21" fill="none" xmlns="http://www.w3.org/2000/svg" xmlns:xlink="http://www.w3.org/1999/xlink">
	<desc>
			Created with Pixso.
	</desc>
	<defs/>
	<path id="Vector" d="M10.5275 0C8.44745 -0.00976562 6.41742 0.610352 4.68744 1.76025C2.95743 2.91016 1.60742 4.55029 0.807434 6.45996C0.00741577 8.37988 -0.202576 10.4902 0.197449 12.5303C0.597443 14.5703 1.59744 16.4399 3.06744 17.9199C4.52744 19.3901 6.39737 20.3901 8.43738 20.8003C10.4774 21.2002 12.5874 21 14.5074 20.2002C16.4274 19.4102 18.0674 18.0601 19.2274 16.3398C20.3774 14.6099 20.9974 12.5801 20.9974 10.5C20.9974 7.72021 19.8975 5.05029 17.9275 3.08984C15.9675 1.12012 13.3075 0.0102539 10.5275 0ZM11.3574 13.3301C10.5774 13.2803 10.2675 12.8701 9.64746 12.5103C9.32745 14.2603 8.91742 15.9102 7.72742 16.7803C7.35739 14.1602 8.24747 12.2002 8.65747 10.0898C7.92746 8.91016 8.75745 6.43994 10.2675 7.05029C12.1274 7.77002 8.65741 11.5801 10.9874 12.0503C13.4774 12.5601 14.4674 7.77002 12.9574 6.22998C10.7274 4.02002 6.52747 6.18018 7.04749 9.37012C7.20746 10.1401 7.97745 10.3999 7.40747 11.48C5.95746 11.1699 5.54739 10.04 5.59741 8.6001C5.68741 7.47998 6.16739 6.43018 6.9574 5.62988C7.7374 4.83008 8.77744 4.33008 9.89746 4.22021C12.5374 3.91016 15.0274 5.2002 15.3374 7.66992C15.7574 10.5 14.1474 13.54 11.3474 13.3301L11.3574 13.3301Z" fill="#3D3017" fill-opacity="1.000000" fill-rule="evenodd"/>
</svg>
