<svg width="20.729248" height="14.509766" viewBox="0 0 20.7292 14.5098" fill="none" xmlns="http://www.w3.org/2000/svg" xmlns:xlink="http://www.w3.org/1999/xlink">
	<desc>
			Created with Pixso.
	</desc>
	<defs/>
	<path id="Vector" d="M20.3006 2.27002C20.1816 1.83008 19.9506 1.43018 19.6295 1.10986C19.3096 0.790039 18.9106 0.560059 18.4735 0.439941C16.8516 0 10.3626 0 10.3626 0C10.3626 0 3.87454 0 2.25253 0.430176C1.81555 0.550293 1.41858 0.790039 1.09958 1.10986C0.779602 1.43018 0.548553 1.83008 0.428558 2.27002C0.133575 3.91992 -0.00939941 5.58984 0.000579834 7.25977C-0.0104065 8.93018 0.132568 10.6001 0.428558 12.2402C0.54657 12.6802 0.777557 13.0801 1.09854 13.3999C1.41855 13.7202 1.8176 13.9497 2.25558 14.0698C3.89459 14.5098 10.3665 14.5098 10.3665 14.5098C10.3665 14.5098 16.8546 14.5098 18.4765 14.0898C18.9125 13.9697 19.3106 13.7402 19.6306 13.4199C19.9506 13.1001 20.1816 12.7002 20.3006 12.2598C20.5946 10.6099 20.7376 8.9502 20.7276 7.27002C20.7466 5.6001 20.6036 3.91992 20.3006 2.27002ZM8.30057 10.3599L8.30057 4.1499L13.7005 7.25977L8.30057 10.3599Z" fill="#5F523C" fill-opacity="1.000000" fill-rule="nonzero"/>
</svg>
